# xmcd
#
# Track frame offsets:
#	150
#	12115
#	21630
#	33610
#	44745
#	58215
#	69445
#	82215
#	92950
#	105630
#	119295
#	130590
#	145100
#	159845
#	171140
#	182295
#	195715
#	208975
#	219725
#	230990
#
# Disc length: 3217 seconds
#
# Revision: 0
# Processed by: cddbd v1.5.2PL0 Copyright (c) Steve Scherf et al.
# Submitted via: dBpowerAMP V4.0
#
DISCID=2c0c8f14
DTITLE=Lefty Frizzell - A Heart On The Highway [CD2]
DYEAR=2008
DGENRE=Country
TTITLE0=The Walz Of The Angel 
TTITLE1=Promises
TTITLE2=Lullaby waltz
TTITLE3=Heart's Highway
TTITLE4=I'm Lonely And Blue 
TTITLE5=Time Changes Things
TTITLE6=You're Just Mine (Only In My Dreams)
TTITLE7=Lost Love Blues
TTITLE8=It's Just You (I  could Love Always)
TTITLE9=That's Me Without You 
TTITLE10=Forever (And Always)
TTITLE11=Treasure Untold
TTITLE12=Blue Yodel (N° 6)
TTITLE13=Glad I Found You
TTITLE14=I'm An Old Old Old Man (Tryin' To Live While I Can)
TTITLE15=Sleep Baby Sleep
TTITLE16=Travellin' Blues
TTITLE17=Mama
TTITLE18=Sweet Lies
TTITLE19=I've Been Away Too Long
EXTD=
EXTT0=
EXTT1=
EXTT2=
EXTT3=
EXTT4=
EXTT5=
EXTT6=
EXTT7=
EXTT8=
EXTT9=
EXTT10=
EXTT11=
EXTT12=
EXTT13=
EXTT14=
EXTT15=
EXTT16=
EXTT17=
EXTT18=
EXTT19=
PLAYORDER=
